# xmcd
#
# Track frame offsets:
#	150
#	16461
#	26788
#	36137
#	56863
#	74905
#	90021
#	99170
#	124389
#	133721
#	153145
#	164074
#	170153
#	176369
#	185146
#	196810
#	208421
#	218838
#
# Disc length: 3044 seconds
#
# Revision: 0
# Processed by: cddbd v1.5.2PL0 Copyright (c) Steve Scherf et al.
# Submitted via: EasyCDDAExtractor 16.0.6.1
#
DISCID=0d0be212
DTITLE=Άνευ ερμηνευτού - Τριάντα έξι ελλ. χοροί ορχήστρα-Νίκ. Σκαλκώτας 2
DYEAR=1991
DGENRE=Ελλ. συμφωνική
TTITLE0=Καθιστός [φιλ. ορχ. Ουραλίων Σβερντλόφσκ]
TTITLE1=Ένα καράβι απ' τη Χιό [χιώτ. 1, φιλ. ορχ. Ουραλίων Σβερντλόφσκ]
TTITLE2=Κάτου στον κάμπο τον πλατύ [τσάμ. 2, φιλ. ορχ. Ουραλίων Σβερντλόφσκ]
TTITLE3=Επιτραπέζιος [κρητ. 4, φιλ. ορχ. Ουραλίων Σβερντλόφσκ]
TTITLE4=Η λαφίνα [μακεδ. 2, φιλ. ορχ. Ουραλίων Σβερντλόφσκ]
TTITLE5=Ο Λύγκος ο λεβέντης [πελοπ. 2, φιλ. ορχ. Ουραλίων Σβερντλόφσκ]
TTITLE6=Χωστιανός [φιλ. ορχ. Ουραλίων Σβερντλόφσκ]
TTITLE7=Ηπειρώτικος 2 [φιλ. ορχ. Ουραλίων Σβερντλόφσκ]
TTITLE8=Κλέφτικος 1 [φιλ. ορχ. Ουραλίων Σβερντλόφσκ]
TTITLE9=Μαριορή μου, Μαριορή μου [φιλ. ορχ. Ουραλίων Σβερντλόφσκ]
TTITLE10=Κάτου στου βάλτου τα χωριά [φιλ. ορχ. Ουραλίων Σβερντλόφσκ]
TTITLE11=Μακεδονικός 2 [φιλ. ορχ. Ουραλίων Σβερντλόφσκ]
TTITLE12=Κάτω στο γιαλό κοντή [χιώτ. 2, φιλ. ορχ. Ουραλίων Σβερντλόφσκ]
TTITLE13=Κλέφτικος 3 [φιλ. ορχ. Ουραλίων Σβερντλόφσκ]
TTITLE14=Το νεραντζοφίλημα [φιλ. ορχ. Ουραλίων Σβερντλόφσκ]
TTITLE15=Αρκαδικός [φιλ. ορχ. Ουραλίων Σβερντλόφσκ]
TTITLE16=Μεσολογγίτικος [φιλ. ορχ. Ουραλίων Σβερντλόφσκ]
TTITLE17=Χελιδονάκι θα γενώ [μαζωχτός, φιλ. ορχ. Ουραλίων Σβερντλόφσκ]
EXTD=
EXTT0=
EXTT1=
EXTT2=
EXTT3=
EXTT4=
EXTT5=
EXTT6=
EXTT7=
EXTT8=
EXTT9=
EXTT10=
EXTT11=
EXTT12=
EXTT13=
EXTT14=
EXTT15=
EXTT16=
EXTT17=
PLAYORDER=
